<svg xmlns="http://www.w3.org/2000/svg"
     width="899" height="846" viewBox="0 0 899 846">
  <path d="M 348 550 L 347 553 L 344 553 L 341 554 L 331 559 L 325 563 L 319 568 L 312 576 L 308 582 L 304 590 L 301 599 L 299 611 L 299 621 L 300 629 L 303 640 L 309 652 L 315 660 L 323 668 L 333 675 L 343 680 L 356 684 L 364 685 L 377 685 L 388 683 L 397 680 L 407 675 L 414 670 L 424 660 L 428 654 L 433 644 L 436 633 L 437 627 L 437 613 L 435 603 L 432 594 L 429 589 L 430 586 L 427 585 L 422 577 L 406 562 L 406 558 L 401 559 L 398 558 L 399 555 L 394 554 L 391 555 L 389 553 L 385 552 L 385 550 L 381 550 L 374 551 L 356 551 Z M 356 582 L 360 582 L 361 581 L 365 582 L 366 581 L 373 581 L 379 583 L 385 586 L 386 589 L 389 589 L 396 596 L 398 599 L 401 605 L 402 608 L 401 616 L 403 617 L 403 623 L 402 627 L 400 633 L 396 639 L 390 645 L 387 647 L 379 651 L 375 652 L 361 652 L 357 651 L 352 649 L 347 646 L 339 638 L 335 632 L 332 624 L 332 619 L 331 618 L 331 614 L 332 613 L 332 608 L 334 602 L 335 600 L 337 598 L 337 597 L 341 596 L 340 593 L 346 587 L 349 585 L 353 583 Z M 505 505 L 499 508 L 494 513 L 492 517 L 491 520 L 489 528 L 492 530 L 493 533 L 492 536 L 495 537 L 499 541 L 503 543 L 506 544 L 517 544 L 523 541 L 527 537 L 530 531 L 531 527 L 531 522 L 530 518 L 527 512 L 524 509 L 521 507 L 519 506 L 516 505 Z M 539 479 L 535 483 L 533 487 L 532 490 L 532 496 L 533 499 L 535 503 L 539 507 L 543 509 L 548 510 L 550 510 L 551 509 L 554 509 L 557 508 L 561 505 L 563 502 L 564 500 L 565 497 L 565 489 L 564 486 L 562 483 L 559 480 L 553 477 L 544 477 L 541 478 Z M 455 473 L 455 475 L 452 479 L 451 481 L 450 484 L 450 492 L 451 495 L 452 497 L 454 500 L 456 502 L 459 504 L 461 505 L 466 506 L 471 506 L 475 505 L 479 503 L 483 499 L 485 495 L 486 492 L 486 483 L 485 480 L 484 478 L 478 473 L 477 470 L 473 471 L 463 470 L 459 472 Z M 503 449 L 500 450 L 496 453 L 494 456 L 493 459 L 493 466 L 494 469 L 495 471 L 499 475 L 501 476 L 504 477 L 510 477 L 516 474 L 517 473 L 517 472 L 519 470 L 520 468 L 520 458 L 518 454 L 515 451 L 511 449 Z M 407 433 L 407 436 L 409 434 Z M 452 411 L 450 414 L 448 414 L 445 416 L 441 420 L 438 426 L 437 438 L 440 440 L 441 443 L 445 447 L 448 449 L 451 450 L 462 450 L 465 449 L 468 447 L 472 443 L 473 440 L 476 437 L 476 435 L 477 434 L 477 430 L 475 429 L 474 424 L 473 422 L 471 420 L 470 418 L 470 414 L 462 414 L 460 411 L 459 413 Z M 408 369 L 405 370 L 403 371 L 401 373 L 400 373 L 399 374 L 396 378 L 395 380 L 394 384 L 393 392 L 391 392 L 395 393 L 396 397 L 398 400 L 401 403 L 404 405 L 406 406 L 410 407 L 415 407 L 419 406 L 423 404 L 429 398 L 430 396 L 431 393 L 432 380 L 428 377 L 428 375 L 424 372 L 420 370 L 417 369 Z M 123 392 L 100 428 L 88 470 L 86 521 L 92 575 L 92 604 L 88 623 L 64 665 L 24 702 L 33 725 L 50 749 L 67 739 L 100 708 L 123 678 L 138 649 L 149 599 L 141 490 L 151 446 L 163 427 L 181 410 L 200 400 L 222 395 L 245 395 L 267 401 L 268 405 L 251 434 L 249 466 L 256 487 L 270 506 L 289 520 L 312 528 L 334 531 L 372 516 L 404 535 L 407 541 L 413 542 L 439 567 L 469 607 L 486 648 L 485 673 L 469 695 L 441 708 L 406 713 L 360 713 L 350 710 L 287 712 L 221 727 L 183 744 L 153 763 L 123 790 L 119 800 L 160 818 L 176 821 L 217 790 L 258 773 L 307 765 L 407 766 L 451 761 L 494 746 L 521 724 L 531 710 L 542 682 L 544 660 L 540 635 L 524 598 L 492 553 L 493 550 L 490 551 L 486 542 L 483 543 L 466 523 L 410 481 L 412 473 L 408 467 L 411 463 L 417 463 L 429 471 L 439 462 L 440 453 L 434 445 L 424 442 L 413 454 L 414 462 L 404 461 L 403 456 L 407 458 L 409 454 L 407 450 L 406 456 L 402 455 L 403 440 L 397 428 L 398 422 L 371 394 L 342 380 L 325 378 L 321 381 L 289 360 L 255 350 L 223 347 L 181 354 L 148 370 Z M 405 471 L 408 472 L 407 476 L 405 477 L 402 476 L 402 474 Z M 318 415 L 332 415 L 342 418 L 347 421 L 351 425 L 352 425 L 355 428 L 355 429 L 359 433 L 363 441 L 364 444 L 364 447 L 365 448 L 364 451 L 365 452 L 365 460 L 363 467 L 359 475 L 348 486 L 342 489 L 336 491 L 324 492 L 320 489 L 319 491 L 317 491 L 315 488 L 312 489 L 309 488 L 303 484 L 295 476 L 293 473 L 290 467 L 291 462 L 288 461 L 289 444 L 291 444 L 291 443 L 290 442 L 290 439 L 291 436 L 294 431 L 303 422 L 306 420 L 312 417 Z M 350 346 L 347 348 L 345 350 L 342 356 L 342 364 L 343 367 L 344 369 L 349 374 L 353 376 L 363 376 L 365 375 L 368 373 L 370 371 L 372 368 L 373 366 L 373 355 L 371 351 L 367 347 L 365 346 L 362 345 L 353 345 Z M 294 304 L 290 306 L 287 308 L 284 312 L 282 316 L 281 319 L 281 328 L 282 331 L 283 333 L 285 336 L 289 340 L 292 342 L 298 344 L 306 344 L 310 343 L 312 342 L 316 339 L 317 338 L 320 334 L 322 329 L 322 318 L 321 315 L 320 313 L 318 310 L 316 308 L 313 306 L 309 304 L 306 303 L 297 303 Z M 362 300 L 359 301 L 356 303 L 354 305 L 352 309 L 352 319 L 354 323 L 358 327 L 360 328 L 363 329 L 370 329 L 373 328 L 375 326 L 376 326 L 377 325 L 377 324 L 379 322 L 380 320 L 381 316 L 381 313 L 380 309 L 379 307 L 377 304 L 373 301 L 370 300 Z M 617 295 L 602 302 L 595 307 L 585 317 L 580 324 L 575 334 L 571 350 L 571 366 L 573 373 L 572 380 L 575 381 L 577 386 L 576 389 L 579 390 L 580 392 L 580 396 L 586 401 L 586 404 L 589 405 L 589 407 L 591 407 L 595 410 L 599 414 L 605 418 L 615 423 L 621 425 L 630 427 L 630 429 L 631 427 L 647 428 L 663 425 L 678 418 L 685 413 L 694 404 L 698 399 L 703 390 L 707 377 L 708 371 L 708 365 L 710 364 L 710 362 L 708 361 L 708 355 L 707 349 L 703 336 L 698 326 L 693 319 L 682 308 L 673 302 L 665 298 L 653 294 L 648 293 L 627 293 Z M 634 323 L 640 324 L 641 323 L 644 323 L 654 326 L 659 329 L 664 333 L 666 335 L 670 340 L 673 346 L 675 352 L 676 358 L 676 364 L 675 366 L 674 367 L 674 372 L 671 378 L 669 381 L 662 388 L 656 392 L 653 393 L 648 392 L 647 395 L 645 395 L 643 393 L 642 395 L 640 395 L 639 393 L 633 394 L 631 394 L 626 393 L 620 390 L 617 388 L 611 382 L 607 376 L 608 373 L 607 370 L 604 368 L 606 364 L 603 363 L 603 359 L 604 351 L 605 347 L 608 341 L 610 338 L 614 334 L 616 334 L 616 332 L 619 329 L 622 327 L 627 325 Z M 447 256 L 447 258 L 448 261 L 450 260 L 448 259 L 448 258 Z M 438 244 L 436 246 L 438 246 Z M 326 241 L 324 242 L 320 245 L 319 246 L 319 247 L 317 249 L 315 253 L 314 256 L 314 266 L 315 269 L 317 273 L 323 279 L 327 281 L 330 282 L 342 283 L 343 280 L 345 279 L 348 278 L 352 274 L 354 271 L 355 269 L 355 266 L 356 262 L 358 261 L 358 258 L 355 255 L 355 252 L 354 250 L 352 247 L 349 244 L 346 242 L 344 241 L 341 240 L 329 240 Z M 518 174 L 517 176 L 514 177 L 506 176 L 504 179 L 501 180 L 497 179 L 496 182 L 494 182 L 491 184 L 487 184 L 487 186 L 485 188 L 481 190 L 471 200 L 465 210 L 463 212 L 462 212 L 463 215 L 459 225 L 458 230 L 457 245 L 455 246 L 454 250 L 452 250 L 455 251 L 455 253 L 454 256 L 452 258 L 454 259 L 454 261 L 460 261 L 462 263 L 464 269 L 463 274 L 466 277 L 468 277 L 470 279 L 472 283 L 482 293 L 492 300 L 500 304 L 509 306 L 512 309 L 517 308 L 518 310 L 525 311 L 526 309 L 530 309 L 531 311 L 536 310 L 539 307 L 542 309 L 544 306 L 550 305 L 559 301 L 569 294 L 578 285 L 583 278 L 588 268 L 590 262 L 592 251 L 592 238 L 589 224 L 587 218 L 583 210 L 573 197 L 568 192 L 560 187 L 558 185 L 558 182 L 557 184 L 555 184 L 550 181 L 545 180 L 543 177 L 538 178 L 535 177 L 534 175 L 530 176 L 529 174 Z M 517 206 L 532 206 L 536 207 L 542 210 L 545 212 L 554 221 L 556 224 L 558 228 L 560 234 L 560 248 L 558 250 L 558 254 L 556 258 L 553 259 L 553 262 L 545 270 L 543 271 L 540 272 L 538 274 L 536 274 L 532 273 L 530 274 L 528 277 L 524 277 L 517 276 L 511 274 L 509 273 L 508 270 L 504 270 L 497 263 L 493 257 L 492 255 L 490 249 L 489 244 L 489 237 L 490 232 L 492 230 L 492 226 L 495 221 L 504 212 L 507 210 L 510 211 L 511 208 Z M 798 30 L 750 24 L 708 61 L 680 75 L 651 84 L 612 90 L 514 96 L 457 110 L 412 137 L 392 159 L 378 185 L 370 234 L 374 258 L 378 264 L 376 274 L 384 281 L 383 289 L 389 293 L 403 323 L 433 363 L 491 421 L 568 475 L 621 502 L 661 512 L 696 512 L 717 508 L 754 490 L 782 460 L 794 434 L 801 405 L 804 377 L 804 287 L 808 262 L 819 236 L 831 218 L 874 176 L 859 123 L 854 121 L 807 167 L 767 218 L 755 246 L 749 274 L 747 379 L 741 411 L 731 430 L 718 444 L 690 457 L 653 456 L 609 438 L 592 428 L 590 422 L 585 423 L 518 370 L 475 325 L 442 275 L 446 272 L 439 270 L 433 256 L 434 253 L 438 254 L 439 260 L 444 260 L 444 253 L 440 253 L 439 248 L 438 253 L 430 248 L 434 242 L 428 240 L 429 237 L 440 239 L 433 236 L 435 231 L 431 230 L 433 227 L 430 221 L 425 222 L 429 199 L 438 183 L 452 170 L 494 150 L 539 142 L 649 136 L 686 128 L 714 117 L 741 101 L 774 72 L 802 35 Z M 428 231 L 431 232 L 430 235 L 427 234 Z M 427 225 L 430 226 L 429 230 L 426 229 Z"
        fill="#000000"
        fill-rule="evenodd"
        clip-rule="evenodd"/>
</svg>
